# xmcd CD database file
#
# Track frame offsets:
#	150
#	15458
#	39347
#	66385
#	83396
#	111888
#	158778
#	182806
#	207276
#	249955
#	274653
#	302176
#
# Disc length: 4276 seconds
#
# Revision: 0
# Processed by: cddbd v1.5.2PL0 Copyright (c) Steve Scherf et al.
# Submitted via: CDex 1.70beta2
#
DISCID=9510b20c
DTITLE=Anthony Wakeman and Mr Soon - Points of Origin
DYEAR=2007
DGENRE=New Age
TTITLE0=the clearing
TTITLE1=home bound
TTITLE2=shadows of an ancient past
TTITLE3=forever the earth below
TTITLE4=protector
TTITLE5=points of origin
TTITLE6=not meant for battle
TTITLE7=the long loneliness
TTITLE8=like a dying star
TTITLE9=to transcend desire
TTITLE10=future kind
TTITLE11=point of departure
EXTD=YEAR: 2007
EXTT0=
EXTT1=
EXTT2=
EXTT3=
EXTT4=
EXTT5=
EXTT6=
EXTT7=
EXTT8=
EXTT9=
EXTT10=
EXTT11=
PLAYORDER=
